<svg t="1680010065777" class="icon" viewBox="0 0 1024 1024" version="1.1" xmlns="http://www.w3.org/2000/svg" p-id="2749"
     width="200" height="200">
    <path d="M791.936 561.408c-47.008 0-91.104-19.936-131.168-52.352l9.728-45.92 0.352-1.792c8.832-48.768 36.224-130.56 121.12-130.56a115.392 115.392 0 0 1 115.328 115.328 115.488 115.488 0 0 1-115.36 115.296z m0-347.296c-108.32 0-192.416 70.368-226.56 186.272-52.064-78.24-91.648-172.192-114.656-251.392h-116.736v303.456a108.8 108.8 0 0 1-108.672 108.704 108.8 108.8 0 0 1-108.576-108.704V148.992H0v303.456c0 124.32 101.12 226.272 225.312 226.272 124.288 0 225.408-101.92 225.408-226.272v-50.784c22.56 47.232 50.432 95.104 84.224 137.44l-71.392 335.904h119.328l51.744-243.616c45.344 28.96 97.504 47.328 157.28 47.328 128 0 232.064-104.608 232.064-232.544 0-128-104.064-232.064-232.064-232.064z"
          fill="#6FDA44" p-id="2750"></path>
</svg>