<?xml version="1.0" standalone="no"?><!DOCTYPE svg PUBLIC "-//W3C//DTD SVG 1.1//EN" "http://www.w3.org/Graphics/SVG/1.1/DTD/svg11.dtd"><svg t="1741498170720" class="icon" viewBox="0 0 3910 1024" version="1.1" xmlns="http://www.w3.org/2000/svg" p-id="5261" xmlns:xlink="http://www.w3.org/1999/xlink" width="763.671875" height="200"><path d="M3523.007836 64.697944l294.005852 168.410025a112.613811 112.613811 0 0 1 56.639509 97.717361v372.508153a104.757033 104.757033 0 0 1-54.217003 91.759305l-316.591468 174.378557a109.994885 109.994885 0 0 1-107.941647-1.018762l-278.239918-160.160409a149.278772 149.278772 0 0 1-74.806997-129.374936V363.271202a167.611253 167.611253 0 0 1 81.637156-143.881166l256.68092-153.374773a141.421995 141.421995 0 0 1 142.836215-1.317319z" fill="#EBB951" p-id="5262"></path><path d="M2509.114271 59.763887l307.226189 174.891867a107.375959 107.375959 0 0 1 54.264144 93.338517v365.340154a117.851662 117.851662 0 0 1-60.497187 102.976163L2502.855038 967.431202a115.232737 115.232737 0 0 1-114.02803-1.07376l-277.134732-161.325831a146.659847 146.659847 0 0 1-72.884706-126.75601V366.832941a178.086957 178.086957 0 0 1 87.026906-153.050025l256.811867-152.814323a125.70844 125.70844 0 0 1 126.494117-1.204706z" fill="#33BA91" p-id="5263"></path><path d="M1506.563274 54.918875l307.016675 180.443989a104.757033 104.757033 0 0 1 51.671406 89.750589l1.911816 363.166445a125.70844 125.70844 0 0 1-64.530332 110.51867l-301.516931 167.899335a117.851662 117.851662 0 0 1-116.620767-1.099949l-277.160921-161.325831a144.040921 144.040921 0 0 1-71.575243-124.477545V357.535754a164.992327 164.992327 0 0 1 78.227315-140.348235l260.059335-160.802046a128.327366 128.327366 0 0 1 132.517647-1.466598z" fill="#0594CB" p-id="5264"></path><path d="M512.811867 63.19468l299.631304 174.263325a115.232737 115.232737 0 0 1 57.302098 99.623939v357.300051a125.70844 125.70844 0 0 1-64.032737 109.523478L508.333504 971.359591a128.327366 128.327366 0 0 1-126.965524-0.602353L107.506905 813.124092a138.803069 138.803069 0 0 1-69.55867-120.287263V353.764501a144.040921 144.040921 0 0 1 68.353964-122.565729l269.225576-166.197033a133.565217 133.565217 0 0 1 137.284092-1.807059z" fill="#FF4088" p-id="5265"></path><path d="M3458.867724 233.477238c153.96665 0 278.96798 125.00133 278.967979 278.94179 0 153.992839-125.00133 278.96798-278.967979 278.96798-153.94046 0-278.96798-125.00133-278.96798-278.96798 0-153.94046 125.027519-278.94179 278.96798-278.94179z m0 103.630895c96.769309 0 175.310895 78.567775 175.310895 175.310895a175.389463 175.389463 0 0 1-175.310895 175.310895c-96.769309 0-175.310895-78.541586-175.310895-175.310895a175.389463 175.389463 0 0 1 175.284706-175.310895h0.026189z m-743.251151 171.042046c0 123.560921-23.413197 159.571151-70.213402 211.033044-46.800205 51.461893-108.868747 72.203785-186.205626 72.203785-70.710997 0-127.672634-25.089309-177.065576-68.694425-54.683171-48.319182-94.490844-123.194271-94.490844-206.764194 0-82.155703 30.693811-153.154783 85.088901-206.030895 47.716829-46.276419 118.742097-76.420256 191.967263-76.420256 88.441125 0 180.260665 41.850435 236.855652 124.477545l-83.098516 70.23959c-35.224552-65.551714-86.267417-87.629258-159.28307-89.724399-80.741483-2.304655-169.627826 74.717954-163.028132 177.432225 3.666496 57.459233 30.510486 156.218926 159.649718 174.341893 67.830179 9.506701 144.983734-62.906598 144.983734-102.242864H2473.313555v-98.209719h242.250639V508.071611l0.052379 0.078568z m-1473.407673-247.88133h110.754374v293.764911c0 46.61688 1.283274 76.813095 3.849821 90.641023 4.425985 22.208491 12.597033 37.633964 29.253401 51.069053 16.682558 13.43509 36.141176 17.258721 65.054118 17.258722 29.331969 0 39.17913-4.556931 54.107007-17.284911 14.901688-12.70179 23.884604-24.775038 26.922558-43.290844 3.011765-18.515806 8.040102-49.235806 8.040102-92.133811V260.268849h110.728184v284.886752c0 65.106496-2.802251 111.121023-8.406751 137.991202-5.604501 26.896368-15.923069 49.576266-30.955704 68.092072-15.032634 18.489616-35.145985 33.234169-60.313862 44.207468-25.194066 10.973299-58.035396 16.446854-98.602557 16.446854-48.973913 0-86.084092-5.971151-111.356727-17.939642-25.298824-11.968491-45.307417-27.498721-59.973401-46.61688-14.692174-19.118159-24.35601-39.152941-29.017698-60.130537-6.756829-31.06046-10.161432-76.944041-10.161433-137.624552V260.268849h0.078568zM245.943325 785.468235V242.774425h113.530435v197.676521h188.353145V242.774425h113.870896v542.69381h-113.870896v-237.300869h-188.353145v237.300869z" fill="#FFFFFF" p-id="5266"></path></svg>