<?xml version="1.0" standalone="no"?><!DOCTYPE svg PUBLIC "-//W3C//DTD SVG 1.1//EN" "http://www.w3.org/Graphics/SVG/1.1/DTD/svg11.dtd"><svg t="1741498416061" class="icon" viewBox="0 0 1877 1024" version="1.1" xmlns="http://www.w3.org/2000/svg" p-id="11131" xmlns:xlink="http://www.w3.org/1999/xlink" width="366.6015625" height="200"><path d="M750.933333 718.506667v187.733333h-112.64c-37.546667 0-37.546667-18.773333-37.546666-28.16v-159.573333h-75.093334v164.266666c0 32.853333 42.24 61.013333 107.946667 61.013334h117.333333v4.693333c0 4.693333 4.693333 28.16-37.546666 37.546667h-187.733334v37.546666h197.12c32.853333 0 103.253333-9.386667 103.253334-65.706666v-234.666667H750.933333v-4.693333z m-295.68-107.946667c-51.626667-18.773333-89.173333-4.693333-107.946666 32.853333L244.053333 887.466667 140.8 643.413333c-14.08-28.16-37.546667-42.24-70.4-42.24-14.08 4.693333-23.466667 4.693333-37.546667 9.386667-23.466667 4.693333-32.853333 18.773333-32.853333 46.933333v281.6h75.093333v-276.906666l103.253334 234.666666c14.08 28.16 28.16 42.24 65.706666 42.24s51.626667-9.386667 65.706667-42.24l103.253333-229.973333v272.213333h75.093334v-281.6c0-23.466667-9.386667-37.546667-32.853334-46.933333z" fill="#017590" p-id="11132"></path><path d="M863.573333 680.96v46.933333c0 32.853333 28.16 61.013333 93.866667 65.706667h98.56c42.24 0 37.546667 32.853333 37.546667 37.546667v37.546666c0 18.773333-14.08 37.546667-32.853334 37.546667h-192.426666v37.546667h187.733333c23.466667 0 46.933333-4.693333 65.706667-14.08 32.853333-14.08 42.24-32.853333 42.24-61.013334v-51.626666c0-56.32-70.4-61.013333-112.64-61.013334h-75.093334c-28.16 0-32.853333-18.773333-37.546666-37.546666v-37.546667c4.693333-14.08 9.386667-37.546667 37.546666-37.546667h187.733334v-37.546666H985.6c-28.16 0-122.026667 4.693333-122.026667 75.093333z m675.84 187.733333v-187.733333c0-37.546667-28.16-65.706667-79.786666-75.093333h-183.04c-56.32 9.386667-75.093333 37.546667-75.093334 75.093333v187.733333c0 37.546667 18.773333 61.013333 61.013334 70.4 14.08 4.693333 23.466667 4.693333 37.546666 4.693334h131.413334l42.24 37.546666h84.48l-56.32-51.626666c28.16-14.08 37.546667-32.853333 37.546666-61.013334z m-79.786666 18.773334l-18.773334-18.773334h-84.48l42.24 37.546667h-75.093333c-23.466667 0-42.24-14.08-42.24-37.546667v-183.04c0-23.466667 18.773333-42.24 42.24-42.24h98.56c23.466667 0 42.24 14.08 46.933333 37.546667v187.733333c-4.693333 4.693333-4.693333 14.08-9.386666 18.773334z m244.053333 18.773333c-37.546667 0-51.626667-14.08-51.626667-37.546667V605.866667h-75.093333v262.826666c0 46.933333 28.16 70.4 93.866667 75.093334H1877.333333v-37.546667h-173.653333z" fill="#F49214" p-id="11133"></path><path d="M1295.36 127.146667c-9.386667 0-14.08 0-18.773333 4.693333 4.693333 9.386667 9.386667 14.08 14.08 18.773333l9.386666 23.466667c9.386667-4.693333 9.386667-14.08 9.386667-23.466667-4.693333-4.693333-4.693333-4.693333-4.693333-9.386666s-4.693333-9.386667-9.386667-14.08z" fill="#017590" p-id="11134"></path><path d="M1637.973333 465.066667c9.386667 9.386667 37.546667 14.08 51.626667 23.466666 9.386667 4.693333 23.466667 9.386667 32.853333 14.08 18.773333 9.386667 32.853333 23.466667 51.626667 32.853334 14.08 14.08 32.853333 18.773333 32.853333 28.16-42.24 0-70.4 4.693333-98.56 14.08-9.386667 4.693333-18.773333 4.693333-18.773333 14.08 0 9.386667 4.693333 9.386667 9.386667 14.08 4.693333 9.386667 14.08 23.466667 28.16 32.853333 9.386667 9.386667 18.773333 14.08 32.853333 23.466667 9.386667 4.693333 42.24 18.773333 61.013333 32.853333 18.773333 14.08 23.466667 14.08 32.853334 23.466667l14.08 14.08c-4.693333-4.693333-4.693333-9.386667-9.386667-14.08l-14.08-14.08c-14.08-18.773333-32.853333-37.546667-51.626667-51.626667-14.08-9.386667-51.626667-28.16-56.32-42.24 9.386667 0 23.466667-4.693333 32.853334-9.386667 18.773333-4.693333 32.853333-4.693333 51.626666-9.386666l23.466667-4.693334v-4.693333c-9.386667-9.386667-14.08-18.773333-23.466667-28.16-28.16-23.466667-51.626667-42.24-84.48-61.013333-14.08-9.386667-37.546667-18.773333-51.626666-23.466667-18.773333-9.386667-14.08-4.693333-18.773334-9.386667-9.386667-14.08-14.08-23.466667-18.773333-37.546666-14.08-28.16-28.16-56.32-42.24-89.173334-9.386667-18.773333-14.08-37.546667-23.466667-56.32-51.626667-84.48-107.946667-136.106667-197.12-187.733333-18.773333-9.386667-42.24-14.08-65.706666-18.773333l-37.546667-4.693334c-9.386667-4.693333-14.08-9.386667-23.466667-18.773333-18.773333-9.386667-51.626667-32.853333-84.48-32.853333-18.773333 0-32.853333 9.386667-42.24 28.16-14.08 32.853333 18.773333 65.706667 32.853334 79.786666 9.386667 14.08 18.773333 23.466667 23.466666 37.546667 4.693333 9.386667 4.693333 18.773333 9.386667 28.16 9.386667 23.466667 18.773333 46.933333 32.853333 70.4 4.693333 9.386667 9.386667 23.466667 18.773334 32.853333 4.693333 4.693333 14.08 9.386667 14.08 18.773334s-9.386667 23.466667-14.08 37.546666c-18.773333 56.32-9.386667 126.72 14.08 168.96 9.386667 14.08 28.16 42.24 51.626666 28.16 28.16-9.386667 18.773333-37.546667 23.466667-61.013333 0-4.693333 0-9.386667 4.693333-14.08l18.773334 42.24c18.773333 28.16 42.24 46.933333 65.706666 65.706667 14.08 9.386667 18.773333 23.466667 37.546667 28.16-4.693333-4.693333-9.386667-4.693333-14.08-9.386667l-28.16-28.16c-23.466667-28.16-42.24-61.013333-56.32-93.866667-9.386667-14.08-14.08-32.853333-23.466667-46.933333-9.386667-14.08-4.693333-14.08-9.386666-18.773333-9.386667 14.08-18.773333 18.773333-23.466667 32.853333-4.693333 14.08-9.386667 46.933333-14.08 75.093333h-4.693333c-14.08-4.693333-23.466667-18.773333-28.16-32.853333-14.08-42.24-18.773333-89.173333-4.693334-136.106667 4.693333-9.386667 18.773333-42.24 14.08-51.626666-4.693333-9.386667-14.08-14.08-18.773333-23.466667-9.386667-9.386667-14.08-18.773333-18.773333-32.853333-14.08-28.16-23.466667-61.013333-37.546667-89.173334-9.386667-14.08-14.08-28.16-23.466667-37.546666-9.386667-14.08-18.773333-23.466667-28.16-37.546667-9.386667-14.08-4.693333-14.08-4.693333-18.773333 0-4.693333 4.693333-4.693333 4.693333-4.693334 4.693333-4.693333 23.466667 0 32.853334 4.693334 18.773333 4.693333 32.853333 14.08 51.626666 23.466666 9.386667 4.693333 14.08 14.08 23.466667 18.773334h9.386667c14.08 4.693333 32.853333 0 51.626666 4.693333 23.466667 9.386667 51.626667 18.773333 70.4 32.853333 65.706667 42.24 122.026667 98.56 159.573334 168.96 4.693333 14.08 9.386667 23.466667 14.08 32.853334 4.693333 9.386667 23.466667 51.626667 32.853333 75.093333 18.773333 9.386667 32.853333 32.853333 46.933333 51.626667z" fill="#017590" p-id="11135"></path></svg>